<svg width="20" height="20" viewBox="0 0 20 20" fill="none" xmlns="http://www.w3.org/2000/svg">
<circle cx="10" cy="10" r="9.5" fill="white" stroke="#DEE4F2"/>
<path d="M9.22168 14.7432H8.28906V13H3.18652V14.748H2.24902L2.24414 12.2334H2.8252C3.13118 11.8883 3.3737 11.4261 3.55273 10.8467C3.73503 10.264 3.84896 9.62598 3.89453 8.93262L4.05078 5.89062H8.30371V12.2334H9.23145L9.22168 14.7432ZM3.89453 12.2334H7.36133V6.66211H4.9541L4.85156 8.75195C4.80924 9.56901 4.7002 10.2656 4.52441 10.8418C4.35189 11.418 4.14193 11.8818 3.89453 12.2334ZM13.8555 6.60352H14.0068C14.5439 6.60677 15.0339 6.7321 15.4766 6.97949C15.9193 7.22689 16.2627 7.56868 16.5068 8.00488C16.7542 8.43783 16.8779 8.92285 16.8779 9.45996C16.8779 10.0003 16.7542 10.4902 16.5068 10.9297C16.2594 11.3691 15.9176 11.7126 15.4814 11.96C15.0452 12.2041 14.5602 12.3294 14.0264 12.3359H13.8555V13.293H12.9473V12.3359H12.8105C12.2669 12.3359 11.7721 12.2122 11.3262 11.9648C10.8835 11.7174 10.5384 11.3757 10.291 10.9395C10.0469 10.5033 9.9248 10.0133 9.9248 9.46973C9.9248 8.92611 10.0469 8.4362 10.291 8C10.5384 7.5638 10.8835 7.22201 11.3262 6.97461C11.7721 6.72721 12.2669 6.60352 12.8105 6.60352H12.9473V5.59766H13.8555V6.60352ZM12.8105 7.34082C12.1986 7.34082 11.7135 7.52962 11.3555 7.90723C11.0007 8.28158 10.8232 8.80241 10.8232 9.46973C10.8232 10.1403 11.0007 10.6628 11.3555 11.0371C11.7103 11.4082 12.1986 11.5938 12.8203 11.5938H12.9473V7.34082H12.8105ZM13.8555 7.34082V11.5938H13.9922C14.6139 11.5938 15.099 11.4033 15.4473 11.0225C15.7988 10.6383 15.9746 10.1175 15.9746 9.45996C15.9746 8.80892 15.7988 8.29297 15.4473 7.91211C15.099 7.53125 14.6074 7.34082 13.9727 7.34082H13.8555Z" fill="#6091F8"/>
</svg>
