<svg width="20" height="20" viewBox="0 0 20 20" fill="none" xmlns="http://www.w3.org/2000/svg">
<circle cx="10" cy="10" r="9.5" fill="white" stroke="#DEE4F2"/>
<path d="M5.7627 10.2168V13H4.8252V5.89062H7.44727C8.22526 5.89062 8.83398 6.08919 9.27344 6.48633C9.71615 6.88346 9.9375 7.40918 9.9375 8.06348C9.9375 8.75358 9.72103 9.28581 9.28809 9.66016C8.8584 10.0312 8.24154 10.2168 7.4375 10.2168H5.7627ZM5.7627 9.4502H7.44727C7.94857 9.4502 8.33268 9.33301 8.59961 9.09863C8.86654 8.861 9 8.51921 9 8.07324C9 7.65007 8.86654 7.31152 8.59961 7.05762C8.33268 6.80371 7.96647 6.67188 7.50098 6.66211H5.7627V9.4502ZM11.1338 13V5.89062H13.458C14.2295 5.89062 14.8089 6.05013 15.1963 6.36914C15.5869 6.68815 15.7822 7.16016 15.7822 7.78516C15.7822 8.11719 15.6878 8.41178 15.499 8.66895C15.3102 8.92285 15.0531 9.11979 14.7275 9.25977C15.1117 9.36719 15.4144 9.57227 15.6357 9.875C15.8604 10.1745 15.9727 10.5326 15.9727 10.9492C15.9727 11.5872 15.766 12.0885 15.3525 12.4531C14.9391 12.8177 14.3548 13 13.5996 13H11.1338ZM12.0713 9.6748V12.2334H13.6191C14.0553 12.2334 14.3988 12.1211 14.6494 11.8965C14.9033 11.6686 15.0303 11.3561 15.0303 10.959C15.0303 10.1029 14.5648 9.6748 13.6338 9.6748H12.0713ZM12.0713 8.92285H13.4873C13.8975 8.92285 14.2246 8.82031 14.4688 8.61523C14.7161 8.41016 14.8398 8.13184 14.8398 7.78027C14.8398 7.38965 14.7259 7.10645 14.498 6.93066C14.2702 6.75163 13.9235 6.66211 13.458 6.66211H12.0713V8.92285Z" fill="#B92020"/>
</svg>
