<svg width="15" height="17" viewBox="0 0 15 17" fill="none" xmlns="http://www.w3.org/2000/svg">
<path d="M13.4312 1.55566C11.341 -0.518555 7.93714 -0.518555 5.84912 1.55566L0.0577129 7.2983C0.019991 7.33573 2.05138e-05 7.38637 2.05138e-05 7.43922C2.05138e-05 7.49207 0.019991 7.54271 0.0577129 7.58014L0.876498 8.39266C0.913924 8.42963 0.964587 8.45039 1.0174 8.45039C1.07021 8.45039 1.12088 8.42963 1.1583 8.39266L6.94971 2.65002C7.66865 1.9366 8.625 1.54465 9.64128 1.54465C10.6575 1.54465 11.6139 1.9366 12.3306 2.65002C13.0496 3.36345 13.4445 4.31248 13.4445 5.31876C13.4445 6.32725 13.0496 7.27408 12.3306 7.9875L6.42826 13.8424L5.4719 14.7915C4.57768 15.6788 3.12428 15.6788 2.23005 14.7915C1.79735 14.3621 1.55993 13.7918 1.55993 13.1841C1.55993 12.5763 1.79735 12.006 2.23005 11.5766L8.0858 5.76795C8.23447 5.62263 8.42974 5.54116 8.63832 5.54116H8.64054C8.84912 5.54116 9.04216 5.62263 9.18861 5.76795C9.33728 5.91548 9.41716 6.10925 9.41716 6.31624C9.41716 6.52101 9.33506 6.71479 9.18861 6.86011L4.40238 11.6053C4.36466 11.6427 4.34469 11.6933 4.34469 11.7462C4.34469 11.799 4.36466 11.8497 4.40238 11.8871L5.22117 12.6996C5.25859 12.7366 5.30925 12.7574 5.36207 12.7574C5.41488 12.7574 5.46554 12.7366 5.50297 12.6996L10.287 7.95227C10.7286 7.51409 10.9704 6.93278 10.9704 6.31403C10.9704 5.69529 10.7263 5.11178 10.287 4.6758C9.375 3.7708 7.89276 3.77301 6.98078 4.6758L6.41273 5.24169L1.12724 10.4845C0.768505 10.8384 0.484144 11.2594 0.290646 11.7232C0.0971477 12.187 -0.00163684 12.6843 2.05138e-05 13.1863C2.05138e-05 14.2058 0.401647 15.1636 1.12724 15.8836C1.87946 16.6279 2.86466 17 3.84987 17C4.83507 17 5.82028 16.6279 6.57028 15.8836L13.4312 9.07966C14.4408 8.07558 15 6.73901 15 5.31876C15.0022 3.89631 14.443 2.55974 13.4312 1.55566Z" fill="#6091F8"/>
</svg>
